<svg xmlns="http://www.w3.org/2000/svg" width="200mm" height="274.151" viewBox="0 0 200 72.536"><g aria-label="معلم يار" style="font-style:normal;font-weight:400;font-size:57.9375px;line-height:1.25;font-family:sans-serif;fill:#000;fill-opacity:1;stroke:none;stroke-width:1.44845"><path d="M187.288 92.513q0-5.04 3.013-7.821 2.665-2.376 6.952-2.376 5.505 0 8.46 4.056 2.549 3.418 2.549 8.922 0 6.257-3.245 9.792-2.839 3.128-7.416 3.128-5.214 0-7.937-2.897-2.781 2.897-7.474 2.897h-4.404v-4.693h3.824q5.678 0 5.678-5.793zm4.983 5.62q0 5.388 5.272 5.388 2.723 0 4.23-2.201 1.564-2.202 1.564-6.142 0-3.882-1.622-6.025-1.623-2.202-4.462-2.202-4.982 0-4.982 5.794z" style="font-style:normal;font-variant:normal;font-weight:400;font-stretch:normal;font-family:'Tajawal Medium';-inkscape-font-specification:'Tajawal Medium, ';stroke-width:1.44845" transform="matrix(.53556 0 0 .53556 -4.425 -17.966)"/><path d="M165.967 103.521h15.296v4.693h-15.76q-3.128 0-6.199-1.216-3.07 1.216-6.257 1.216h-15.7v-4.693h16.105q-4.17-3.418-8.574-10.023v-2.55q2.78-3.997 6.605-6.314 3.882-2.318 7.763-2.318 3.882 0 7.764 2.376 3.882 2.317 6.72 6.373v2.433q-4.402 6.605-8.632 10.023zm-16.454-11.24q5.33 7.3 9.791 9.618 4.462-2.375 9.792-9.676-4.345-5.272-9.85-5.33-5.504 0-9.733 5.388z" style="font-style:normal;font-variant:normal;font-weight:400;font-stretch:normal;font-family:'Tajawal Medium';-inkscape-font-specification:'Tajawal Medium, ';stroke-width:1.44845" transform="matrix(.53556 0 0 .53556 -4.425 -17.966)"/><path d="M136.999 103.521h3.823v4.693h-4.403q-4.982 0-7.706-3.186-2.896 3.186-7.995 3.186h-3.476v-4.693h3.07q6.026 0 6.026-6.315V73.51l5.04-2.665v26.419q0 3.36 1.275 4.809 1.333 1.448 4.346 1.448z" style="font-style:normal;font-variant:normal;font-weight:400;font-stretch:normal;font-family:'Tajawal Medium';-inkscape-font-specification:'Tajawal Medium, ';stroke-width:1.44845" transform="matrix(.53556 0 0 .53556 -4.425 -17.966)"/><path d="M116.836 103.521h3.882v4.693h-4.403q-4.693 0-7.474-2.897-2.723 2.781-7.706 2.897h-7.59q-5.677 0-5.677 5.794v9.791l-4.983 2.666v-12.63q0-4.81 2.78-7.59 2.492-2.55 6.606-2.724-2.086-3.36-2.086-8.227 0-6.315 3.303-9.85 2.954-3.128 7.763-3.128 4.925 0 7.59 3.07 2.375 2.724 2.375 7.127v5.215q0 5.793 5.62 5.793zm-10.602-5.388v-5.388q0-5.794-4.983-5.794-2.897 0-4.519 2.202-1.564 2.143-1.564 6.025 0 3.94 1.506 6.142 1.506 2.201 4.23 2.201 5.33 0 5.33-5.388zM48.528 108.214v-4.693h3.824q5.678 0 5.678-5.793V85.734l4.982-2.665v14.832q0 4.925-2.954 7.764-2.723 2.55-7.127 2.55zm3.07 11.53q-2.838 0-2.838-2.897 0-2.839 2.839-2.839 2.78 0 2.78 2.839 0 2.897-2.78 2.897zm7.359 0q-2.84 0-2.84-2.897 0-2.839 2.84-2.839 2.78 0 2.78 2.839 0 2.897-2.78 2.897z" style="font-style:normal;font-variant:normal;font-weight:400;font-stretch:normal;font-family:'Tajawal Medium';-inkscape-font-specification:'Tajawal Medium, ';stroke-width:1.44845" transform="matrix(.53556 0 0 .53556 -4.425 -17.966)"/><path d="M47.601 108.214q-5.04 0-7.764-3.244-2.317-2.781-2.317-7.069V73.51l4.983-2.665v26.883q0 5.793 5.677 5.793h3.824v4.693zM27.091 105.144q0 6.489-3.418 10.428-3.245 3.766-8.633 3.766-3.476 0-6.778-1.738v-4.345q2.954 1.622 5.91 1.622 3.707 0 5.793-2.491 2.086-2.492 2.086-6.895V85.734l5.04-2.665z" style="font-style:normal;font-variant:normal;font-weight:400;font-stretch:normal;font-family:'Tajawal Medium';-inkscape-font-specification:'Tajawal Medium, ';stroke-width:1.44845" transform="matrix(.53556 0 0 .53556 -4.425 -17.966)"/></g><path d="M193.772 155.09q1.374-3.059 3.473-4.847 2.281-1.893 5.08-1.893 2.852 0 4.51 1.97 1.426 1.66 1.426 4.148v.985q0 4.12-3.473 4.12h-17.081v-1.088h4.847v-14.982l1.218-.648zm13.271.337v-.96q0-2.358-1.477-3.784-1.296-1.244-3.214-1.244-3.318 0-5.858 3.266-1.867 2.41-2.722 5.78h10.835q1.348 0 1.892-.674.544-.7.544-2.384z" style="font-style:normal;font-variant:normal;font-weight:400;font-stretch:normal;font-size:25.9202px;line-height:1.25;font-family:'Tajawal Light';-inkscape-font-specification:'Tajawal Light, ';fill:#000;fill-opacity:1;stroke:none;stroke-width:.648007" transform="matrix(.53556 0 0 .53556 -4.425 -17.966)"/><path d="M188.147 158.485h1.115v1.089h-1.296q-1.892 0-3.033-1.089 0 2.8-1.425 4.433-1.348 1.58-3.655 1.58-1.478 0-2.825-.673v-1.089q1.347.7 2.695.7 2.126 0 3.189-1.659.803-1.296.803-3.266v-9.253l1.218-.648v6.557q0 3.318 3.214 3.318zM174.384 159.574v-16.07l1.218-.649v16.719zM157.173 159.574v-1.089h3.266q5.961 0 9.331-4.199-2.436-4.847-6.091-4.847-2.203 0-4.2 2.23v-1.297q2.1-2.022 4.33-2.022 3.991 0 6.946 5.444v.985q-3.732 4.795-10.342 4.795z" style="font-style:normal;font-variant:normal;font-weight:400;font-stretch:normal;font-size:25.9202px;line-height:1.25;font-family:'Tajawal Light';-inkscape-font-specification:'Tajawal Light, ';fill:#000;fill-opacity:1;stroke:none;stroke-width:.648007" transform="matrix(.53556 0 0 .53556 -4.425 -17.966)"/><path d="M158.495 159.574c-.104 1.451-.847 2.644-2.23 3.577-1.347.898-3.092 1.348-5.235 1.348-2.592 0-4.536-.76-5.832-2.281-.985-1.14-1.478-2.54-1.478-4.2 0-1.537.398-2.842 1.193-3.913l1.218-.26c-.881 1.28-1.322 2.67-1.322 4.174 0 1.641.579 2.955 1.737 3.94 1.106.967 2.6 1.451 4.484 1.451 2.056 0 3.655-.458 4.795-1.374.864-.674 1.34-1.494 1.426-2.462h-2.696l.57-1.089h3.448v1.089zM135.815 140.211q-.648 1.193-1.504 1.193-.596 0-1.4-.596-.466-.311-.751-.311-.493 0-.985.777l-.544-.31q.648-1.193 1.503-1.193.492 0 1.166.492.57.415.985.415.441 0 .985-.778zm-3.163 19.363v-16.07l1.219-.649v16.719zM127.183 144.929q-.83 0-.83-.855 0-.83.83-.83.804 0 .804.83 0 .855-.804.855zm-4.743 14.645v-1.089h1.114q3.215 0 3.215-3.318v-5.91l1.218-.647v6.583q0 2.1-1.218 3.292-1.14 1.089-3.033 1.089z" style="font-style:normal;font-variant:normal;font-weight:400;font-stretch:normal;font-size:25.9202px;line-height:1.25;font-family:'Tajawal Light';-inkscape-font-specification:'Tajawal Light, ';fill:#000;fill-opacity:1;stroke:none;stroke-width:.648007" transform="matrix(.53556 0 0 .53556 -4.425 -17.966)"/><path d="M122.88 158.485h1.115v1.089H122.7q-2.566 0-3.629-1.892-1.088 1.892-3.654 1.892h-8.062l.57-1.089h4.122v-11.612l1.218-.648v12.26h1.97q3.214 0 3.214-3.318v-11.664l1.218-.648v12.312q0 3.318 3.215 3.318zM98.956 159.574v-1.089h1.115q3.214 0 3.214-3.318v-5.91l1.218-.647v6.583q0 2.1-1.218 3.292-1.14 1.089-3.033 1.089zm1.348 4.536q-.83 0-.83-.855 0-.83.83-.83.804 0 .804.83 0 .855-.804.855zm2.618 0q-.83 0-.83-.855 0-.83.83-.83.804 0 .804.83 0 .855-.804.855z" style="font-style:normal;font-variant:normal;font-weight:400;font-stretch:normal;font-size:25.9202px;line-height:1.25;font-family:'Tajawal Light';-inkscape-font-specification:'Tajawal Light, ';fill:#000;fill-opacity:1;stroke:none;stroke-width:.648007" transform="matrix(.53556 0 0 .53556 -4.425 -17.966)"/><path d="M89.6 147.521q-.83 0-.83-.855 0-.83.83-.83.803 0 .803.83 0 .855-.804.855zm9.797 10.964h1.114v1.089h-1.296q-1.892 0-3.032-1.089-.026 2.851-1.996 4.536-1.763 1.478-4.536 1.478-3.24 0-5.029-2.281-1.373-1.763-1.373-4.2 0-2.306 1.192-3.913l1.218-.26q-1.322 1.919-1.322 4.174 0 2.384 1.581 3.94 1.478 1.451 3.733 1.451 2.644 0 4.095-1.581 1.219-1.322 1.219-3.396v-9.175l1.218-.648v6.557q0 3.318 3.214 3.318zM72.18 159.574v-16.07l1.219-.649v16.719zM59.013 152.705q0-2.177 1.27-3.344 1.115-1.01 2.93-1.01 2.358 0 3.602 1.736 1.089 1.478 1.089 3.888 0 2.748-1.374 4.277-1.218 1.322-3.188 1.322-2.618 0-3.707-1.892-1.088 1.892-3.654 1.892h-1.296v-1.089h1.114q3.214 0 3.214-3.318zm1.219 2.462q0 3.318 3.214 3.318 1.503 0 2.358-1.192.882-1.218.882-3.318 0-2.203-.985-3.421-.907-1.115-2.489-1.115-2.98 0-2.98 3.473z" style="font-style:normal;font-variant:normal;font-weight:400;font-stretch:normal;font-size:25.9202px;line-height:1.25;font-family:'Tajawal Light';-inkscape-font-specification:'Tajawal Light, ';fill:#000;fill-opacity:1;stroke:none;stroke-width:.648007" transform="matrix(.53556 0 0 .53556 -4.425 -17.966)"/><path d="M49.734 144.929q-.83 0-.83-.855 0-.83.83-.83.803 0 .803.83 0 .855-.803.855zm2.618 0q-.83 0-.83-.855 0-.83.83-.83.803 0 .803.83 0 .855-.803.855zm2.773 13.556h1.115v1.089h-1.296q-2.566 0-3.629-1.892-1.089 1.892-3.655 1.892h-1.296v-1.089h1.115q3.214 0 3.214-3.318v-5.91l1.218-.647v6.557q0 3.318 3.214 3.318z" style="font-style:normal;font-variant:normal;font-weight:400;font-stretch:normal;font-size:25.9202px;line-height:1.25;font-family:'Tajawal Light';-inkscape-font-specification:'Tajawal Light, ';fill:#000;fill-opacity:1;stroke:none;stroke-width:.648007" transform="matrix(.53556 0 0 .53556 -4.425 -17.966)"/><path d="M46.753 158.485h1.166v1.089h-1.192q-2.203 0-3.5-.493-1.295-.518-2.41-1.814-3.292 2.307-7.724 2.307h-3.24v-1.089h3.266q5.962 0 9.331-4.199-2.436-4.847-6.09-4.847-2.204 0-4.2 2.23v-1.297q2.1-2.022 4.329-2.022 3.991 0 6.946 5.444v.985q-.907 1.166-1.892 1.944.907.985 2.048 1.373 1.166.39 3.162.39z" style="font-style:normal;font-variant:normal;font-weight:400;font-stretch:normal;font-size:25.9202px;line-height:1.25;font-family:'Tajawal Light';-inkscape-font-specification:'Tajawal Light, ';fill:#000;fill-opacity:1;stroke:none;stroke-width:.648007" transform="matrix(.53556 0 0 .53556 -4.425 -17.966)"/><path d="M30.112 159.574q-1.97 0-3.11-1.167-1.14-1.192-1.14-3.214v-11.69l1.218-.648v12.312q0 3.318 3.214 3.318h1.114v1.089zM14.794 147.832q-.83 0-.83-.855 0-.83.83-.83.803 0 .803.83 0 .855-.803.855zm6.402 10.601q0 2.878-1.97 4.562-1.789 1.504-4.562 1.504-3.24 0-5.029-2.281-1.373-1.763-1.373-4.2 0-2.306 1.192-3.913l1.218-.26q-1.322 1.919-1.322 4.174 0 2.384 1.581 3.94 1.478 1.451 3.733 1.451 2.644 0 4.095-1.581 1.219-1.322 1.219-3.396v-9.175l1.218-.648z" style="font-style:normal;font-variant:normal;font-weight:400;font-stretch:normal;font-size:25.9202px;line-height:1.25;font-family:'Tajawal Light';-inkscape-font-specification:'Tajawal Light, ';fill:#000;fill-opacity:1;stroke:none;stroke-width:.648007" transform="matrix(.53556 0 0 .53556 -4.425 -17.966)"/><path style="fill:none;stroke:#f59e0b;stroke-width:8.89511;stroke-miterlimit:4;stroke-dasharray:none;stroke-opacity:1" d="M-141.033 1.696h89.109v144.537h-89.109z" transform="matrix(.47275 0 0 .47275 183.568 1.3)"/><path style="color:#000;font-style:normal;font-variant:normal;font-weight:400;font-stretch:normal;font-size:medium;line-height:normal;font-family:sans-serif;font-variant-ligatures:normal;font-variant-position:normal;font-variant-caps:normal;font-variant-numeric:normal;font-variant-alternates:normal;font-variant-east-asian:normal;font-feature-settings:normal;font-variation-settings:normal;text-indent:0;text-align:start;text-decoration:none;text-decoration-line:none;text-decoration-style:solid;text-decoration-color:#000;letter-spacing:normal;word-spacing:normal;text-transform:none;writing-mode:lr-tb;direction:ltr;text-orientation:mixed;dominant-baseline:auto;baseline-shift:baseline;text-anchor:start;white-space:normal;shape-padding:0;shape-margin:0;inline-size:0;clip-rule:nonzero;display:inline;overflow:visible;visibility:visible;opacity:1;isolation:auto;mix-blend-mode:normal;color-interpolation:sRGB;color-interpolation-filters:linearRGB;solid-color:#000;solid-opacity:1;vector-effect:none;fill:#fbbf24;fill-opacity:1;fill-rule:nonzero;stroke:none;stroke-linecap:butt;stroke-linejoin:miter;stroke-miterlimit:4;stroke-dasharray:none;stroke-dashoffset:0;stroke-opacity:1;color-rendering:auto;image-rendering:auto;shape-rendering:auto;text-rendering:auto;enable-background:accumulate;stop-color:#000;stop-opacity:1" d="m-26.539 2.845-2.766 3.144-14.994 16.932c.026 5.085 0 119.21-.061 123.782l79.119-89.928Zm-17.734 32.721 18.492-20.897L22.936 57.53l-67.235 76.546" transform="matrix(.47275 0 0 .47275 183.568 1.3)"/></svg>