<svg width="200mm" height="274.151" viewBox="0 0 200 72.536" xmlns="http://www.w3.org/2000/svg"><g aria-label="معلم يار" style="font-style:normal;font-weight:400;font-size:57.9375px;line-height:1.25;font-family:sans-serif;fill:#fff;fill-opacity:1;stroke:none;stroke-width:1.44845"><path d="M187.288 92.513q0-5.04 3.013-7.821 2.665-2.376 6.952-2.376 5.505 0 8.46 4.056 2.549 3.418 2.549 8.922 0 6.257-3.245 9.792-2.839 3.128-7.416 3.128-5.214 0-7.937-2.897-2.781 2.897-7.474 2.897h-4.404v-4.693h3.824q5.678 0 5.678-5.793zm4.983 5.62q0 5.388 5.272 5.388 2.723 0 4.23-2.201 1.564-2.202 1.564-6.142 0-3.882-1.622-6.025-1.623-2.202-4.462-2.202-4.982 0-4.982 5.794z" style="font-style:normal;font-variant:normal;font-weight:400;font-stretch:normal;font-family:'Tajawal Medium';-inkscape-font-specification:'Tajawal Medium, ';stroke-width:1.44845;fill:#fff" transform="matrix(.53556 0 0 .53556 -4.425 -17.966)"/><path d="M165.967 103.521h15.296v4.693h-15.76q-3.128 0-6.199-1.216-3.07 1.216-6.257 1.216h-15.7v-4.693h16.105q-4.17-3.418-8.574-10.023v-2.55q2.78-3.997 6.605-6.314 3.882-2.318 7.763-2.318 3.882 0 7.764 2.376 3.882 2.317 6.72 6.373v2.433q-4.402 6.605-8.632 10.023zm-16.454-11.24q5.33 7.3 9.791 9.618 4.462-2.375 9.792-9.676-4.345-5.272-9.85-5.33-5.504 0-9.733 5.388z" style="font-style:normal;font-variant:normal;font-weight:400;font-stretch:normal;font-family:'Tajawal Medium';-inkscape-font-specification:'Tajawal Medium, ';stroke-width:1.44845;fill:#fff" transform="matrix(.53556 0 0 .53556 -4.425 -17.966)"/><path d="M136.999 103.521h3.823v4.693h-4.403q-4.982 0-7.706-3.186-2.896 3.186-7.995 3.186h-3.476v-4.693h3.07q6.026 0 6.026-6.315V73.51l5.04-2.665v26.419q0 3.36 1.275 4.809 1.333 1.448 4.346 1.448z" style="font-style:normal;font-variant:normal;font-weight:400;font-stretch:normal;font-family:'Tajawal Medium';-inkscape-font-specification:'Tajawal Medium, ';stroke-width:1.44845;fill:#fff" transform="matrix(.53556 0 0 .53556 -4.425 -17.966)"/><path d="M116.836 103.521h3.882v4.693h-4.403q-4.693 0-7.474-2.897-2.723 2.781-7.706 2.897h-7.59q-5.677 0-5.677 5.794v9.791l-4.983 2.666v-12.63q0-4.81 2.78-7.59 2.492-2.55 6.606-2.724-2.086-3.36-2.086-8.227 0-6.315 3.303-9.85 2.954-3.128 7.763-3.128 4.925 0 7.59 3.07 2.375 2.724 2.375 7.127v5.215q0 5.793 5.62 5.793zm-10.602-5.388v-5.388q0-5.794-4.983-5.794-2.897 0-4.519 2.202-1.564 2.143-1.564 6.025 0 3.94 1.506 6.142 1.506 2.201 4.23 2.201 5.33 0 5.33-5.388zM48.528 108.214v-4.693h3.824q5.678 0 5.678-5.793V85.734l4.982-2.665v14.832q0 4.925-2.954 7.764-2.723 2.55-7.127 2.55zm3.07 11.53q-2.838 0-2.838-2.897 0-2.839 2.839-2.839 2.78 0 2.78 2.839 0 2.897-2.78 2.897zm7.359 0q-2.84 0-2.84-2.897 0-2.839 2.84-2.839 2.78 0 2.78 2.839 0 2.897-2.78 2.897z" style="font-style:normal;font-variant:normal;font-weight:400;font-stretch:normal;font-family:'Tajawal Medium';-inkscape-font-specification:'Tajawal Medium, ';stroke-width:1.44845;fill:#fff" transform="matrix(.53556 0 0 .53556 -4.425 -17.966)"/><path d="M47.601 108.214q-5.04 0-7.764-3.244-2.317-2.781-2.317-7.069V73.51l4.983-2.665v26.883q0 5.793 5.677 5.793h3.824v4.693zM27.091 105.144q0 6.489-3.418 10.428-3.245 3.766-8.633 3.766-3.476 0-6.778-1.738v-4.345q2.954 1.622 5.91 1.622 3.707 0 5.793-2.491 2.086-2.492 2.086-6.895V85.734l5.04-2.665z" style="font-style:normal;font-variant:normal;font-weight:400;font-stretch:normal;font-family:'Tajawal Medium';-inkscape-font-specification:'Tajawal Medium, ';stroke-width:1.44845;fill:#fff" transform="matrix(.53556 0 0 .53556 -4.425 -17.966)"/></g><path d="M99.353 65.095q.736-1.638 1.86-2.596 1.222-1.013 2.72-1.013 1.528 0 2.416 1.055.764.888.764 2.22v.528q0 2.208-1.86 2.208h-9.149v-.583H98.7V58.89l.653-.347Zm7.107.18v-.513q0-1.263-.79-2.027-.695-.666-1.722-.666-1.777 0-3.138 1.749-1 1.291-1.457 3.096h5.802q.722 0 1.014-.361.291-.375.291-1.277z" style="font-style:normal;font-variant:normal;font-weight:400;font-stretch:normal;font-size:25.9202px;line-height:1.25;font-family:'Tajawal Light';-inkscape-font-specification:'Tajawal Light, ';fill:#fff;fill-opacity:1;stroke:none;stroke-width:.34705"/><path d="M96.34 66.914h.597v.583h-.694q-1.013 0-1.624-.583 0 1.499-.763 2.373-.722.847-1.958.847-.791 0-1.513-.36v-.584q.722.375 1.444.375 1.138 0 1.707-.888.43-.694.43-1.75v-4.955l.653-.347v3.512q0 1.777 1.721 1.777zM88.97 67.497V58.89l.652-.347v8.954zM79.752 67.497v-.583H81.5q3.193 0 4.997-2.25-1.305-2.595-3.262-2.595-1.18 0-2.249 1.194v-.694q1.125-1.083 2.318-1.083 2.138 0 3.72 2.915v.528q-1.998 2.568-5.538 2.568z" style="font-style:normal;font-variant:normal;font-weight:400;font-stretch:normal;font-size:25.9202px;line-height:1.25;font-family:'Tajawal Light';-inkscape-font-specification:'Tajawal Light, ';fill:#fff;fill-opacity:1;stroke:none;stroke-width:.34705"/><path d="M80.46 67.497c-.056.777-.454 1.416-1.194 1.915-.722.482-1.657.722-2.804.722-1.389 0-2.43-.407-3.124-1.221-.527-.611-.791-1.36-.791-2.25 0-.823.213-1.522.638-2.095l.653-.14a3.859 3.859 0 0 0-.708 2.236c0 .879.31 1.582.93 2.11.592.518 1.393.777 2.402.777 1.1 0 1.957-.245 2.568-.736.462-.36.717-.8.763-1.318H78.35l.305-.583H80.5v.583zM68.313 57.127q-.347.638-.805.638-.32 0-.75-.319-.25-.166-.402-.166-.264 0-.528.416l-.291-.167q.347-.638.805-.638.263 0 .624.264.306.222.528.222.236 0 .527-.417zm-1.694 10.37V58.89l.653-.347v8.954zM63.69 59.653q-.444 0-.444-.458 0-.444.444-.444.43 0 .43.444 0 .458-.43.458zm-2.54 7.844v-.583h.597q1.721 0 1.721-1.777v-3.165l.653-.347v3.526q0 1.124-.653 1.763-.61.583-1.624.583z" style="font-style:normal;font-variant:normal;font-weight:400;font-stretch:normal;font-size:25.9202px;line-height:1.25;font-family:'Tajawal Light';-inkscape-font-specification:'Tajawal Light, ';fill:#fff;fill-opacity:1;stroke:none;stroke-width:.34705"/><path d="M61.386 66.914h.597v.583h-.694q-1.375 0-1.944-1.014-.583 1.014-1.957 1.014H53.07l.305-.583h2.207v-6.22l.653-.347v6.567h1.055q1.721 0 1.721-1.777V58.89l.652-.347v6.594q0 1.777 1.722 1.777zM48.573 67.497v-.583h.597q1.721 0 1.721-1.777v-3.165l.653-.347v3.526q0 1.124-.653 1.763-.61.583-1.624.583zm.722 2.429q-.445 0-.445-.458 0-.444.445-.444.43 0 .43.444 0 .458-.43.458zm1.402 0q-.444 0-.444-.458 0-.444.444-.444.43 0 .43.444 0 .458-.43.458z" style="font-style:normal;font-variant:normal;font-weight:400;font-stretch:normal;font-size:25.9202px;line-height:1.25;font-family:'Tajawal Light';-inkscape-font-specification:'Tajawal Light, ';fill:#fff;fill-opacity:1;stroke:none;stroke-width:.34705"/><path d="M43.561 61.042q-.444 0-.444-.459 0-.444.444-.444.43 0 .43.444 0 .459-.43.459zm5.248 5.872h.597v.583h-.694q-1.014 0-1.625-.583-.013 1.527-1.068 2.429-.944.791-2.43.791-1.735 0-2.693-1.221-.736-.944-.736-2.25 0-1.235.639-2.095l.652-.14q-.708 1.028-.708 2.236 0 1.277.847 2.11.792.777 2 .777 1.415 0 2.193-.847.652-.708.652-1.818v-4.914l.652-.347v3.512q0 1.777 1.722 1.777zM34.233 67.497V58.89l.652-.347v8.954zM27.18 63.818q0-1.166.681-1.79.597-.542 1.569-.542 1.263 0 1.93.93.582.791.582 2.082 0 1.472-.735 2.29-.653.709-1.708.709-1.402 0-1.985-1.014-.583 1.014-1.957 1.014h-.694v-.583h.596q1.722 0 1.722-1.777zm.653 1.319q0 1.777 1.722 1.777.805 0 1.263-.639.472-.652.472-1.777 0-1.18-.528-1.832-.486-.597-1.332-.597-1.597 0-1.597 1.86z" style="font-style:normal;font-variant:normal;font-weight:400;font-stretch:normal;font-size:25.9202px;line-height:1.25;font-family:'Tajawal Light';-inkscape-font-specification:'Tajawal Light, ';fill:#fff;fill-opacity:1;stroke:none;stroke-width:.34705"/><path d="M22.211 59.653q-.444 0-.444-.458 0-.444.444-.444.43 0 .43.444 0 .458-.43.458zm1.402 0q-.444 0-.444-.458 0-.444.444-.444.43 0 .43.444 0 .458-.43.458zm1.486 7.26h.596v.584h-.694q-1.374 0-1.943-1.014-.583 1.014-1.957 1.014h-.695v-.583h.597q1.722 0 1.722-1.777v-3.165l.652-.347v3.512q0 1.777 1.722 1.777z" style="font-style:normal;font-variant:normal;font-weight:400;font-stretch:normal;font-size:25.9202px;line-height:1.25;font-family:'Tajawal Light';-inkscape-font-specification:'Tajawal Light, ';fill:#fff;fill-opacity:1;stroke:none;stroke-width:.34705"/><path d="M20.615 66.914h.624v.583h-.638q-1.18 0-1.874-.264-.694-.278-1.291-.972-1.763 1.236-4.137 1.236h-1.735v-.583h1.749q3.193 0 4.997-2.25-1.305-2.595-3.262-2.595-1.18 0-2.249 1.194v-.694q1.125-1.083 2.318-1.083 2.138 0 3.72 2.915v.528q-.485.624-1.013 1.04.486.528 1.097.736.625.209 1.694.209z" style="font-style:normal;font-variant:normal;font-weight:400;font-stretch:normal;font-size:25.9202px;line-height:1.25;font-family:'Tajawal Light';-inkscape-font-specification:'Tajawal Light, ';fill:#fff;fill-opacity:1;stroke:none;stroke-width:.34705"/><path d="M11.703 67.497q-1.056 0-1.666-.625-.611-.639-.611-1.721V58.89l.652-.347v6.594q0 1.777 1.722 1.777h.597v.583zM3.498 61.208q-.444 0-.444-.458 0-.444.444-.444.43 0 .43.444 0 .458-.43.458zm3.43 5.678q0 1.54-1.056 2.443-.958.805-2.443.805-1.735 0-2.693-1.221Q0 67.969 0 66.663q0-1.235.639-2.095l.652-.14q-.708 1.028-.708 2.236 0 1.277.847 2.11.791.777 1.999.777 1.416 0 2.193-.847.653-.708.653-1.818v-4.914l.652-.347z" style="font-style:normal;font-variant:normal;font-weight:400;font-stretch:normal;font-size:25.9202px;line-height:1.25;font-family:'Tajawal Light';-inkscape-font-specification:'Tajawal Light, ';fill:#fff;fill-opacity:1;stroke:none;stroke-width:.34705"/><path style="fill:none;stroke:#f59e0b;stroke-width:8.89511;stroke-miterlimit:4;stroke-dasharray:none;stroke-opacity:1" d="M-141.033 1.696h89.109v144.537h-89.109z" transform="matrix(.47275 0 0 .47275 183.568 1.3)"/><path style="color:#000;font-style:normal;font-variant:normal;font-weight:400;font-stretch:normal;font-size:medium;line-height:normal;font-family:sans-serif;font-variant-ligatures:normal;font-variant-position:normal;font-variant-caps:normal;font-variant-numeric:normal;font-variant-alternates:normal;font-variant-east-asian:normal;font-feature-settings:normal;font-variation-settings:normal;text-indent:0;text-align:start;text-decoration:none;text-decoration-line:none;text-decoration-style:solid;text-decoration-color:#000;letter-spacing:normal;word-spacing:normal;text-transform:none;writing-mode:lr-tb;direction:ltr;text-orientation:mixed;dominant-baseline:auto;baseline-shift:baseline;text-anchor:start;white-space:normal;shape-padding:0;shape-margin:0;inline-size:0;clip-rule:nonzero;display:inline;overflow:visible;visibility:visible;opacity:1;isolation:auto;mix-blend-mode:normal;color-interpolation:sRGB;color-interpolation-filters:linearRGB;solid-color:#000;solid-opacity:1;vector-effect:none;fill:#fbbf24;fill-opacity:1;fill-rule:nonzero;stroke:none;stroke-linecap:butt;stroke-linejoin:miter;stroke-miterlimit:4;stroke-dasharray:none;stroke-dashoffset:0;stroke-opacity:1;color-rendering:auto;image-rendering:auto;shape-rendering:auto;text-rendering:auto;enable-background:accumulate;stop-color:#000;stop-opacity:1" d="m-26.539 2.845-2.766 3.144-14.994 16.932c.026 5.085 0 119.21-.061 123.782l79.119-89.928Zm-17.734 32.721 18.492-20.897L22.936 57.53l-67.235 76.546" transform="matrix(.47275 0 0 .47275 183.568 1.3)"/></svg>