<svg width="100" height="102" viewBox="0 0 100 102" fill="none" xmlns="http://www.w3.org/2000/svg">
<path d="M80 76.0001V84.4376L84.5 89.5001M45 55H20M100 45V35C100 29.4772 95.5228 25 90 25H30C24.4772 25 20 29.4772 20 35V95C20 100.523 24.4772 105 30 105H45M75 15V35M45 15V35M102.5 85C102.5 97.4264 92.4264 107.5 80 107.5C67.5736 107.5 57.5 97.4264 57.5 85C57.5 72.5736 67.5736 62.5 80 62.5C92.4264 62.5 102.5 72.5736 102.5 85Z" stroke="white" stroke-width="1.5" stroke-linecap="round" stroke-linejoin="round"/>
</svg>
