<svg width="21" height="26" viewBox="0 0 24 26" fill="none" xmlns="http://www.w3.org/2000/svg">
<path d="M22.6667 25V23.6667C22.6667 22.1939 21.4728 21 20 21H14.6667C13.1939 21 12 22.1939 12 23.6667V25M8.00004 11.6667H1.33337M22.6667 9V6.33333C22.6667 4.86057 21.4728 3.66667 20 3.66667H4.00004C2.52728 3.66667 1.33337 4.86057 1.33337 6.33333V22.3333C1.33337 23.8061 2.52728 25 4.00004 25H6.66671M16 1V6.33333M8.00004 1V6.33333M20 14.3333C20 15.8061 18.8061 17 17.3334 17C15.8606 17 14.6667 15.8061 14.6667 14.3333C14.6667 12.8606 15.8606 11.6667 17.3334 11.6667C18.8061 11.6667 20 12.8606 20 14.3333Z" stroke="#A69FFF" stroke-width="1.5" stroke-linecap="round" stroke-linejoin="round"/>
</svg>
