<svg width="21" height="27" viewBox="0 0 25 27" fill="none" xmlns="http://www.w3.org/2000/svg">
<path d="M17.3334 17.2667V19.5167L18.5334 20.8667M8.00004 11.6667H1.33337M22.6667 9V6.33333C22.6667 4.86057 21.4728 3.66667 20 3.66667H4.00004C2.52728 3.66667 1.33337 4.86057 1.33337 6.33333V22.3333C1.33337 23.8061 2.52728 25 4.00004 25H8.00004M16 1V6.33333M8.00004 1V6.33333M23.3334 19.6667C23.3334 22.9804 20.6471 25.6667 17.3334 25.6667C14.0197 25.6667 11.3334 22.9804 11.3334 19.6667C11.3334 16.353 14.0197 13.6667 17.3334 13.6667C20.6471 13.6667 23.3334 16.353 23.3334 19.6667Z" stroke="#A69FFF" stroke-width="1.5" stroke-linecap="round" stroke-linejoin="round"/>
</svg>
