<svg width="21" height="22" viewBox="0 0 32 22" fill="none" xmlns="http://www.w3.org/2000/svg">
<path d="M4.00004 20.3333H1.33337V19C1.33337 16.5149 3.03307 14.4268 5.33337 13.8347M8.00004 9.43909C6.44645 8.88998 5.33337 7.40833 5.33337 5.6667C5.33337 3.92507 6.44645 2.44342 8.00004 1.89431M28 20.3333H30.6667V19C30.6667 16.5149 28.967 14.4268 26.6667 13.8347M24 1.89431C25.5536 2.44342 26.6667 3.92507 26.6667 5.6667C26.6667 7.40833 25.5536 8.88998 24 9.43909M13.3334 13.6667H18.6667C21.6122 13.6667 24 16.0545 24 19V20.3334H8.00004V19C8.00004 16.0545 10.3879 13.6667 13.3334 13.6667ZM20 5.66669C20 7.87583 18.2092 9.66669 16 9.66669C13.7909 9.66669 12 7.87583 12 5.66669C12 3.45755 13.7909 1.66669 16 1.66669C18.2092 1.66669 20 3.45755 20 5.66669Z" stroke="#A69FFF" stroke-width="1.5" stroke-linecap="round" stroke-linejoin="round"/>
</svg>
