
<svg width="100" height="102" viewBox="0 0 100 102" fill="none" xmlns="http://www.w3.org/2000/svg">
<path d="M15 94.9999H5V89.9999C5 80.6808 11.3739 72.8502 20 70.63M30 54.1465C24.174 52.0873 20 46.5311 20 40C20 33.469 24.174 27.9128 30 25.8536M105 94.9999H115V89.9999C115 80.6808 108.626 72.8502 100 70.63M90 25.8536C95.826 27.9128 100 33.469 100 40C100 46.5311 95.826 52.0873 90 54.1465M50 70H70C81.0457 70 90 78.9543 90 90V95H30V90C30 78.9543 38.9543 70 50 70ZM75 40C75 48.2843 68.2843 55 60 55C51.7157 55 45 48.2843 45 40C45 31.7157 51.7157 25 60 25C68.2843 25 75 31.7157 75 40Z" stroke="white" stroke-width="1.5" stroke-linecap="round" stroke-linejoin="round"/>
</svg>
